<svg xmlns="http://www.w3.org/2000/svg" width="15.628" height="19.88" viewBox="0 0 15.628 19.88">
  <path id="map-pin-line" d="M10.814,19.292l4.3-4.529a6.651,6.651,0,0,0,0-9.057,5.861,5.861,0,0,0-8.6,0,6.651,6.651,0,0,0,0,9.057Zm0,2.588L5.289,16.057a8.551,8.551,0,0,1,0-11.645,7.535,7.535,0,0,1,11.051,0,8.551,8.551,0,0,1,0,11.645Zm0-9.815a1.832,1.832,0,1,0-1.736-1.83A1.785,1.785,0,0,0,10.814,12.064Zm0,1.83a3.57,3.57,0,0,1-3.473-3.66,3.57,3.57,0,0,1,3.473-3.66,3.57,3.57,0,0,1,3.473,3.66A3.57,3.57,0,0,1,10.814,13.894Z" transform="translate(-3 -2)" fill="#9c917d"/>
</svg>
