<svg xmlns="http://www.w3.org/2000/svg" width="18.135" height="18.583" viewBox="0 0 18.135 18.583">
  <path id="search-line" d="M16.311,15.372l3.823,3.918-1.263,1.294-3.823-3.918a7.88,7.88,0,0,1-5.014,1.8A8.139,8.139,0,0,1,2,10.233,8.139,8.139,0,0,1,10.035,2a8.139,8.139,0,0,1,8.035,8.233A8.325,8.325,0,0,1,16.311,15.372Zm-1.791-.679a6.466,6.466,0,0,0,1.763-4.46,6.326,6.326,0,0,0-6.249-6.4,6.326,6.326,0,0,0-6.249,6.4,6.326,6.326,0,0,0,6.249,6.4,6.151,6.151,0,0,0,4.352-1.807Z" transform="translate(-2 -2)" fill="#9c917d"/>
</svg>
